# xmcd
#
# Track frame offsets: 
#        150
#        18037
#        35197
#        51367
#        65062
#        87011
#        102866
#        119511
#        140591
#
# Disc length: 2152 seconds
#
# Revision: 0
# Processed by: cddbd v1.5.2PL0 Copyright (c) Steve Scherf et al.
# Submitted via: ExactAudioCopy v0.99pb2
#
DISCID=7c086609
DTITLE=Carpenters - Carpenters  40 40 Hits
DYEAR=1900
DGENRE=
TTITLE0=Yesterday Once More
TTITLE1=Superstar
TTITLE2=Rainy Days And Mondays
TTITLE3=Maybe It's You
TTITLE4=This Masquerade
TTITLE5=One More Time
TTITLE6=(They Long To Be) Close To You
TTITLE7=Solitaire
TTITLE8=A Song For You
EXTD=
EXTT0=
EXTT1=
EXTT2=
EXTT3=
EXTT4=
EXTT5=
EXTT6=
EXTT7=
EXTT8=
PLAYORDER=
